<svg width="48" height="48" viewBox="0 0 48 48" fill="none" xmlns="http://www.w3.org/2000/svg">
<path d="M5.71429 0C2.56 0 0 2.56 0 5.71429V42.2857C0 45.44 2.56 48 5.71429 48H42.2857C45.44 48 48 45.44 48 42.2857V5.71429C48 2.56 45.44 0 42.2857 0H5.71429ZM25.3371 8C27.5885 8 29.7143 10.0229 29.7143 20C29.7143 23.5657 29.1076 28.7438 26.9933 33.0067C27.9076 34.1953 28.8229 34.5714 29.4286 34.2857C31.1429 33.4629 32.2393 30.5717 33.2679 27.4174C33.5536 26.5603 34.5039 26.0921 35.3839 26.3549C36.2754 26.6292 36.7768 27.5427 36.4911 28.3884C35.6225 31.0627 33.1889 37.692 29.5089 37.692C28.3432 37.692 26.7762 37.6459 25.279 36.183C23.599 38.4688 21.509 40 19.029 40C13.7833 40 11.4286 36.0123 11.4286 32.058C11.4286 27.8638 13.5781 22.9152 18.4353 22.9152C19.2581 22.9152 20.0115 23.0638 20.6629 23.2924C20.5715 22.1496 20.5714 21.2353 20.5714 19.8638C20.5714 19.7381 20.6171 8 25.3371 8ZM25.4732 11.4866C24.7761 12.6752 23.9554 16.1476 23.9554 19.8504C23.9554 23.8733 24.4231 26.9598 25.1317 29.2455C26.1946 26.3084 26.3304 22.8914 26.3304 20C26.3304 14.56 26.0104 12.2409 25.4732 11.4866ZM18.4219 26.2857C14.7876 26.2857 14.8571 31.919 14.8571 32.1362C14.8571 33.5533 15.1876 36.5714 18.9933 36.5714C20.4562 36.5714 21.9438 35.4054 23.2009 33.3482C22.4352 31.9196 21.7144 29.68 21.2344 27.4286C21.1429 27.36 21.051 27.2921 20.971 27.2121C20.971 27.2121 19.8619 26.2857 18.4219 26.2857Z" fill="black"/>
</svg>
