<svg width="48" height="48" viewBox="0 0 48 48" fill="none" xmlns="http://www.w3.org/2000/svg">
<path d="M43.6364 0H4.36364C1.95273 0 0 1.95273 0 4.36364V43.6364C0 46.0473 1.95273 48 4.36364 48H26.1818V28.3636H19.6364V21.8182H26.1818V18.3033C26.1818 11.6487 29.424 8.72727 34.9549 8.72727C37.6036 8.72727 39.0044 8.92364 39.6676 9.01309V15.2727H35.8953C33.5476 15.2727 32.7273 16.512 32.7273 19.0211V21.8182H39.6087L38.6749 28.3636H32.7273V48H43.6364C46.0473 48 48 46.0473 48 43.6364V4.36364C48 1.95273 46.0451 0 43.6364 0Z" fill="black"/>
</svg>
