<svg width="48" height="48" viewBox="0 0 48 48" fill="none" xmlns="http://www.w3.org/2000/svg">
<path d="M4.375 0C1.97656 0 0 1.97656 0 4.375V43.625C0 46.0234 1.97656 48 4.375 48H43.625C46.0234 48 48 46.0234 48 43.625V4.375C48 1.97656 46.0234 0 43.625 0H4.375ZM18.375 7.8125H27.1875L24.375 9.1875H22C23 10.1875 25 11.7969 25 15C25 18.2031 23.1719 19.6016 21.375 21C20.7734 21.6016 20.1875 22.2031 20.1875 23C20.1875 24 20.7734 24.4141 21.375 24.8125L23 26C24.7969 27.6016 26.625 29 26.625 32C26.625 36 22.5781 40 15.375 40C9.17188 40 6.1875 37 6.1875 34C6.1875 32.3984 7.02344 30.4141 9.625 28.8125C12.2266 27.2109 15.8125 27.0156 17.8125 26.8125C17.2109 26.0156 16.625 25.2031 16.625 24C16.625 23.2031 16.7969 22.7734 17 22.375H15.625C10.625 22.5781 8 19.2109 8 15.8125C8 13.8125 9.01563 11.5859 10.8125 10.1875C13.2109 8.1875 16.1719 7.8125 18.375 7.8125ZM15.8125 9.1875C14.6094 9.1875 13.4141 9.82813 12.8125 10.625C12.0156 11.625 11.8125 12.8125 11.8125 13.8125C11.8125 16.6094 13.3906 21.375 17.1875 21.375C18.1875 21.375 19.3906 20.7891 20.1875 20.1875C21.1875 19.1875 21.1875 17.7891 21.1875 17.1875C21.1875 13.9844 19.4141 9.1875 15.8125 9.1875ZM34 16H38V22H44V26H38V32H34V26H28V22H34V16ZM17.8125 28.1875C17.4141 28.1875 14.9844 28.2109 13.1875 28.8125C12.1875 29.2109 9.625 30.1875 9.625 33.1875C9.625 36.1875 12.5859 38.375 17.1875 38.375C21.3906 38.375 23.625 36.4141 23.625 33.8125C23.625 31.6094 22.2031 30.3906 19 28.1875H17.8125Z" fill="black"/>
</svg>
