<svg width="48" height="48" viewBox="0 0 48 48" fill="none" xmlns="http://www.w3.org/2000/svg">
<path d="M43.6364 0H4.36364C1.95273 0 0 1.95273 0 4.36364V43.6364C0 46.0473 1.95273 48 4.36364 48H43.6364C46.0473 48 48 46.0473 48 43.6364V4.36364C48 1.95273 46.0473 0 43.6364 0ZM15.1724 39.2727H8.736V18.5629H15.1724V39.2727ZM11.8887 15.6022C9.81382 15.6022 8.136 13.92 8.136 11.8495C8.136 9.77891 9.816 8.09891 11.8887 8.09891C13.9571 8.09891 15.6393 9.78109 15.6393 11.8495C15.6393 13.92 13.9571 15.6022 11.8887 15.6022ZM39.2815 39.2727H32.8495V29.2015C32.8495 26.7993 32.8058 23.7098 29.5047 23.7098C26.1556 23.7098 25.6407 26.3258 25.6407 29.0269V39.2727H19.2087V18.5629H25.3833V21.3927H25.4705C26.3302 19.7651 28.4291 18.048 31.56 18.048C38.0771 18.048 39.2815 22.3375 39.2815 27.9142V39.2727V39.2727Z" fill="black"/>
</svg>
