<svg width="48" height="48" viewBox="0 0 48 48" fill="none" xmlns="http://www.w3.org/2000/svg">
<path d="M24 0C10.746 0 0 10.746 0 24C0 34.168 6.326 42.852 15.254 46.348C15.044 44.45 14.854 41.536 15.338 39.464C15.774 37.592 18.152 27.534 18.152 27.534C18.152 27.534 17.434 26.096 17.434 23.972C17.434 20.634 19.368 18.144 21.776 18.144C23.824 18.144 24.812 19.682 24.812 21.524C24.812 23.584 23.502 26.662 22.824 29.514C22.258 31.904 24.022 33.852 26.378 33.852C30.644 33.852 33.922 29.354 33.922 22.862C33.922 17.116 29.794 13.098 23.898 13.098C17.07 13.098 13.062 18.22 13.062 23.514C13.062 25.576 13.856 27.788 14.848 28.992C15.044 29.23 15.072 29.438 15.014 29.68C14.832 30.438 14.428 32.068 14.348 32.402C14.244 32.842 14 32.934 13.546 32.722C10.548 31.326 8.674 26.944 8.674 23.424C8.674 15.854 14.174 8.9 24.532 8.9C32.858 8.9 39.328 14.832 39.328 22.762C39.328 31.034 34.112 37.69 26.874 37.69C24.442 37.69 22.156 36.426 21.374 34.934C21.374 34.934 20.17 39.516 19.878 40.64C19.336 42.724 17.874 45.338 16.894 46.932C19.14 47.624 21.526 48 24 48C37.254 48 48 37.254 48 24C48 10.746 37.254 0 24 0Z" fill="black"/>
</svg>
