<svg width="48" height="48" viewBox="0 0 48 48" fill="none" xmlns="http://www.w3.org/2000/svg">
<path d="M48 8C48 3.58172 44.4183 0 40 0H8C3.58172 0 0 3.58172 0 8V40C0 44.4183 3.58172 48 8 48H40C44.4183 48 48 44.4183 48 40V8ZM37.8764 17.033C37.6206 17.2503 37.4667 17.566 37.4667 17.9016C37.4667 18.0102 37.4667 18.1353 37.4667 18.2853C37.4667 26.9707 30.8373 37.0293 18.7227 37.0293C15.625 37.0293 12.6901 36.2081 10.059 34.8462C9.65369 34.6364 9.81025 34.0587 10.2667 34.0587V34.0587C11.3196 34.0587 12.3729 33.9149 13.3957 33.6581C15.0828 33.2346 14.6902 30.278 13.5802 28.9387C13.2889 28.5872 13.0311 28.2078 12.81 27.8084C12.5344 27.3106 12.9003 26.9733 13.4693 26.9733V26.9733V26.9733C13.997 26.9733 14.0322 26.3458 13.566 26.0986C11.7455 25.1333 10.4144 23.399 10.1091 21.279C10.0477 20.8522 10.469 20.5527 10.8742 20.7001V20.7001C11.4331 20.9034 11.8741 20.1544 11.5121 19.6825C10.5815 18.4692 10.0427 17.1143 10.0427 15.544V15.544C10.0427 13.8193 12.0163 13.6372 13.3271 14.7581C15.9483 16.9995 19.2105 18.5759 22.8291 19.0593C23.705 19.1763 24.2133 18.4837 24.2133 17.6V17.6C24.2133 13.944 27.184 10.9707 30.8427 10.9707C32.3961 10.9707 33.9476 11.4649 35.0808 12.4533C35.4572 12.7816 35.9461 12.9921 36.4314 12.8742C37.086 12.7152 37.6983 12.4861 38.2685 12.2231C38.8186 11.9695 39.3829 12.4481 39.0443 12.9504C38.8809 13.1928 38.6994 13.4223 38.5028 13.6402C38.1556 14.025 38.43 14.7722 38.9275 14.6267V14.6267C39.4012 14.4882 39.8877 15.009 39.5622 15.3801C39.0268 15.9904 38.4553 16.541 37.8764 17.033Z" fill="black"/>
</svg>
